<svg width="66" height="60" viewBox="0 0 66 60" fill="none" xmlns="http://www.w3.org/2000/svg">
<path d="M31.4757 57.4181H50.7753C50.7753 57.4181 49.4603 49.7362 41.731 44.0598L14.7021 44.5234C14.7021 44.5234 8.10811 48.5157 6.43359 57.4181H23.614" fill="white"/>
<path d="M51.0434 58H31.4216C30.8926 58 30.4598 57.5813 30.4598 57.0695C30.4598 56.5577 30.8926 56.139 31.4216 56.139H49.8122C49.1293 53.9522 47.0517 48.8902 41.5403 44.861L14.6662 45.3077C13.6274 45.9963 8.86625 49.4764 7.16377 56.139H23.4383C23.9673 56.139 24.4001 56.5577 24.4001 57.0695C24.4001 57.5813 23.9673 58 23.4383 58H5.96146C5.6729 58 5.40358 57.879 5.22083 57.665C5.03808 57.451 4.96113 57.1718 5.01884 56.902C6.77903 47.8387 13.5793 43.763 13.8679 43.5862C14.0121 43.5025 14.1757 43.456 14.3488 43.456L41.8288 43C42.0308 43.0093 42.2424 43.0558 42.4156 43.1768C50.4951 48.9181 51.9283 56.5856 51.986 56.9113C52.0341 57.1811 51.9571 57.4603 51.7744 57.665C51.5916 57.879 51.3223 58 51.0434 58Z" fill="#30323A"/>
<path d="M56.0978 58H3.90217C2.85598 58 2 57.55 2 57C2 56.45 2.85598 56 3.90217 56H56.0978C57.144 56 58 56.45 58 57C58 57.55 57.144 58 56.0978 58Z" fill="#FFB100"/>
<path d="M17.3806 53.7924C17.3806 56.6968 14.6371 59.0525 11.2597 59.0525C7.88224 59.0525 5.13867 56.6968 5.13867 53.7924C5.13867 50.888 7.88224 48.5323 11.2597 48.5323C14.6371 48.5323 17.3806 50.888 17.3806 53.7924Z" fill="white"/>
<path d="M11.2624 60.0003C7.3646 60.0003 4.19531 57.2189 4.19531 53.7941C4.19531 50.3694 7.3646 47.588 11.2624 47.588C15.1601 47.588 18.3294 50.3694 18.3294 53.7941C18.3294 57.2189 15.1601 60.0003 11.2624 60.0003ZM11.2624 49.4801C8.40526 49.4801 6.08743 51.4195 6.08743 53.7941C6.08743 56.1782 8.40526 58.1082 11.2624 58.1082C14.1194 58.1082 16.4373 56.1687 16.4373 53.7941C16.4373 51.4101 14.11 49.4801 11.2624 49.4801Z" fill="#30323A"/>
<path d="M18 44.0214L30.2279 56H50C50 56 47.7579 48.3393 39.8258 43L18 44.0214Z" fill="#C9C9C9"/>
<path d="M52.6595 53.7924C52.6595 56.6968 49.9159 59.0525 46.5385 59.0525C43.161 59.0525 40.4175 56.6968 40.4175 53.7924C40.4175 50.888 43.161 48.5323 46.5385 48.5323C49.9159 48.5323 52.6595 50.888 52.6595 53.7924Z" fill="white"/>
<path d="M46.5392 60.0003C42.6415 60.0003 39.4722 57.2189 39.4722 53.7941C39.4722 50.3694 42.6415 47.588 46.5392 47.588C50.437 47.588 53.6063 50.3694 53.6063 53.7941C53.6063 57.2189 50.437 60.0003 46.5392 60.0003ZM46.5392 49.4801C43.6821 49.4801 41.3643 51.4195 41.3643 53.7941C41.3643 56.1782 43.6821 58.1082 46.5392 58.1082C49.3963 58.1082 51.7141 56.1687 51.7141 53.7941C51.7141 51.4101 49.3963 49.4801 46.5392 49.4801Z" fill="#30323A"/>
<path d="M46.6866 14.8742C48.1246 6.5962 46.8947 0.948242 46.8947 0.948242C42.4482 0.948242 36.507 4.846 34.2648 6.43537C32.316 5.91504 30.263 5.63122 28.1344 5.63122C25.9017 5.63122 23.7447 5.94342 21.7012 6.52052C19.5442 4.97844 13.4705 0.948242 8.95781 0.948242C8.95781 0.948242 7.69009 6.8138 9.25108 15.3472C6.94271 18.7057 5.58984 22.717 5.58984 27.0216C5.58984 38.8378 15.6843 48.4119 28.1344 48.4119C40.5845 48.4119 50.6789 38.8378 50.6789 27.0216C50.6789 22.5089 49.2031 18.3273 46.6866 14.8742Z" fill="white"/>
<path d="M28.1371 49.3558C15.1856 49.3558 4.64648 39.337 4.64648 27.0194C4.64648 22.8 5.89528 18.6941 8.25096 15.1369C6.77511 6.72646 7.97661 0.99336 8.03337 0.747385C8.12797 0.312199 8.51586 0 8.9605 0C13.4827 0 19.2631 3.64232 21.8931 5.48713C25.8665 4.44647 30.1049 4.41809 34.0878 5.41145C36.6894 3.60448 42.432 0 46.9068 0C47.3515 0 47.7394 0.312199 47.834 0.747385C47.8813 0.983899 49.0449 6.49941 47.7015 14.645C50.2748 18.3157 51.6371 22.5918 51.6371 27.0194C51.6277 39.337 41.0886 49.3558 28.1371 49.3558ZM9.75519 1.92996C9.4903 3.77477 9.00781 8.71318 10.1904 15.1653C10.2377 15.4113 10.1809 15.6667 10.039 15.8748C7.75901 19.1955 6.54806 23.0459 6.54806 27.0194C6.54806 38.2964 16.2357 47.4637 28.1465 47.4637C40.0574 47.4637 49.745 38.2964 49.745 27.0194C49.745 22.8567 48.43 18.8455 45.9324 15.4302C45.781 15.2221 45.7243 14.9666 45.7621 14.7112C46.8406 8.45775 46.3771 3.72746 46.1122 1.93942C41.9211 2.3746 36.4624 6.03584 34.8162 7.20895C34.5892 7.36978 34.2959 7.42655 34.0216 7.35086C30.086 6.29128 25.876 6.31966 21.9593 7.42655C21.685 7.50223 21.3822 7.45493 21.1552 7.28464C19.4901 6.09261 13.9935 2.3746 9.75519 1.92996Z" fill="#30323A"/>
<path d="M45.3245 30.1606C44.8326 30.1606 44.4163 29.7821 44.3785 29.2807C44.3406 28.7604 44.738 28.3063 45.2583 28.2684L55.3149 27.5684C55.8258 27.54 56.2893 27.9279 56.3272 28.4482C56.365 28.9685 55.9677 29.4226 55.4473 29.4605L45.3908 30.1606C45.3624 30.1606 45.3434 30.1606 45.3245 30.1606Z" fill="#30323A"/>
<path d="M53.8244 36.1965C53.7582 36.1965 53.692 36.187 53.6163 36.1776L44.6666 34.2098C44.1557 34.0962 43.8341 33.5948 43.9476 33.084C44.0611 32.5731 44.5625 32.2514 45.0734 32.365L54.0231 34.3328C54.534 34.4463 54.8556 34.9477 54.7421 35.4586C54.6475 35.8937 54.2596 36.1965 53.8244 36.1965Z" fill="#30323A"/>
<path d="M11.3294 30.1606C11.3104 30.1606 11.2821 30.1606 11.2631 30.1606L1.20655 29.4605C0.686215 29.4226 0.288871 28.9685 0.326713 28.4482C0.364555 27.9279 0.818663 27.54 1.33899 27.5684L11.3956 28.2684C11.9159 28.3063 12.3133 28.7604 12.2754 29.2807C12.2376 29.7821 11.8213 30.1606 11.3294 30.1606Z" fill="#30323A"/>
<path d="M2.81907 36.1965C2.38388 36.1965 1.996 35.8937 1.89193 35.4586C1.7784 34.9477 2.10006 34.4463 2.61093 34.3328L11.5606 32.365C12.0715 32.2514 12.5729 32.5731 12.6864 33.084C12.8 33.5948 12.4783 34.0962 11.9674 34.2098L3.01774 36.1776C2.96098 36.187 2.89475 36.1965 2.81907 36.1965Z" fill="#30323A"/>
<path d="M20.9856 26.8129C20.9856 27.9482 20.068 28.8753 18.9232 28.8753C17.788 28.8753 16.8608 27.9576 16.8608 26.8129C16.8608 25.6776 17.788 24.7505 18.9232 24.7505C20.0585 24.7505 20.9856 25.6682 20.9856 26.8129Z" fill="#30323A"/>
<path d="M39.7356 26.7738C39.7356 27.9186 38.818 28.8362 37.6732 28.8362C36.538 28.8362 35.6108 27.9186 35.6108 26.7738C35.6108 25.6386 36.5285 24.7114 37.6732 24.7114C38.818 24.7114 39.7356 25.6386 39.7356 26.7738Z" fill="#30323A"/>
<path d="M43.2655 12.3098C43.2655 12.3098 39.9448 9.7365 38.1284 8.88505C38.1284 8.88505 41.1274 6.52937 43.5872 5.56439C43.5872 5.56439 43.5872 9.52837 43.2655 12.3098Z" fill="#F47253"/>
<path d="M43.2671 13.2533C43.0589 13.2533 42.8602 13.1871 42.69 13.0546C42.6521 13.0262 39.4355 10.5381 37.7326 9.73396C37.4393 9.59205 37.2312 9.30824 37.1934 8.98658C37.1555 8.66492 37.288 8.34326 37.5529 8.13513C37.6759 8.03106 40.6938 5.68484 43.2576 4.68202C43.5509 4.56849 43.8725 4.60634 44.1374 4.77663C44.3929 4.95638 44.5537 5.24965 44.5537 5.56185C44.5537 5.72268 44.5537 9.61098 44.2226 12.4113C44.1847 12.7519 43.9671 13.0452 43.6455 13.1776C43.5225 13.2344 43.39 13.2533 43.2671 13.2533ZM39.8802 8.77845C40.7695 9.32716 41.725 9.99886 42.4818 10.5381C42.567 9.28932 42.6048 8.01214 42.6332 7.05662C41.6115 7.59588 40.6181 8.25811 39.8802 8.77845Z" fill="#30323A"/>
<path d="M12.8197 12.3088C12.8197 12.3088 16.1404 9.73553 17.9568 8.88408C17.9568 8.88408 14.9578 6.52839 12.498 5.56342C12.498 5.56342 12.498 9.52739 12.8197 12.3088Z" fill="#F47253"/>
<path d="M12.8241 13.2552C12.7011 13.2552 12.5781 13.2268 12.4551 13.1795C12.1429 13.047 11.9253 12.7537 11.878 12.4132C11.5563 9.60337 11.5469 5.72454 11.5469 5.56371C11.5469 5.25151 11.6982 4.95823 11.9631 4.77848C12.2186 4.59873 12.5497 4.56089 12.843 4.68388C15.4068 5.6867 18.4152 8.04238 18.5477 8.13698C18.8031 8.33566 18.945 8.65731 18.9072 8.98843C18.8694 9.31009 18.6707 9.59391 18.3679 9.73582C16.665 10.54 13.439 13.0281 13.4011 13.0565C13.2309 13.1889 13.0227 13.2552 12.8241 13.2552ZM13.4674 7.05848C13.4863 8.014 13.5336 9.29117 13.6187 10.54C14.3661 9.99126 15.3311 9.32901 16.2204 8.7803C15.473 8.25997 14.4797 7.59773 13.4674 7.05848Z" fill="#30323A"/>
<path d="M31.7435 33.4156C31.7435 34.1441 30.3433 34.7306 28.6215 34.7306C26.8997 34.7306 25.4995 34.1441 25.4995 33.4156C25.4995 32.6871 26.8997 32.1006 28.6215 32.1006C30.3433 32.1006 31.7435 32.6871 31.7435 33.4156Z" fill="#30323A"/>
<path d="M32.3459 39.7814C29.7537 39.7814 27.644 37.842 27.644 35.4485C27.644 34.9282 28.0698 34.5024 28.5901 34.5024C29.1104 34.5024 29.5362 34.9282 29.5362 35.4485C29.5362 36.7919 30.7944 37.8893 32.3459 37.8893C33.8975 37.8893 35.1557 36.7919 35.1557 35.4485C35.1557 34.9282 35.5815 34.5024 36.1018 34.5024C36.6221 34.5024 37.0478 34.9282 37.0478 35.4485C37.0478 37.8326 34.9381 39.7814 32.3459 39.7814Z" fill="#30323A"/>
<path d="M24.8088 39.7814C22.2166 39.7814 20.1069 37.842 20.1069 35.4485C20.1069 34.9282 20.5327 34.5024 21.053 34.5024C21.5733 34.5024 21.999 34.9282 21.999 35.4485C21.999 36.7919 23.2573 37.8893 24.8088 37.8893C26.3604 37.8893 27.6186 36.7919 27.6186 35.4485C27.6186 34.9282 28.0443 34.5024 28.5647 34.5024C29.085 34.5024 29.5107 34.9282 29.5107 35.4485C29.5107 37.8326 27.401 39.7814 24.8088 39.7814Z" fill="#30323A"/>
<path d="M28.5823 36.5459C28.062 36.5459 27.6362 36.1202 27.6362 35.5999V33.6321C27.6362 33.1118 28.062 32.686 28.5823 32.686C29.1026 32.686 29.5283 33.1118 29.5283 33.6321V35.5999C29.5283 36.1202 29.1026 36.5459 28.5823 36.5459Z" fill="#373737"/>
<path d="M64.42 11.0882H56.615C56.0947 11.0882 55.6689 10.6625 55.6689 10.1422C55.6689 9.62183 56.0947 9.19611 56.615 9.19611H64.42C64.9403 9.19611 65.366 9.62183 65.366 10.1422C65.366 10.6625 64.9403 11.0882 64.42 11.0882Z" fill="#30323A"/>
<path d="M59.2167 16.763H56.615C56.0947 16.763 55.6689 16.3372 55.6689 15.8169C55.6689 15.2966 56.0947 14.8708 56.615 14.8708H59.2167C59.737 14.8708 60.1627 15.2966 60.1627 15.8169C60.1627 16.3372 59.737 16.763 59.2167 16.763Z" fill="#30323A"/>
</svg>
