<svg width="75" height="60" viewBox="0 0 75 60" fill="none" xmlns="http://www.w3.org/2000/svg">
<path d="M40.613 57.1893H61.5258C61.5258 57.1893 60.0946 48.8282 51.6821 42.6501L22.2641 43.1547C22.2641 43.1547 15.0872 47.4999 13.2646 57.1893H31.3253" fill="white"/>
<path d="M61.962 58H40.7642C40.1902 58 39.7205 57.5534 39.7205 57.0074C39.7205 56.4615 40.1902 56.0149 40.7642 56.0149H60.6156C59.8745 53.6824 57.6201 48.2829 51.6397 43.9851L22.4784 44.4615C21.3512 45.196 16.1848 48.9082 14.3375 56.0149H31.35C31.924 56.0149 32.3937 56.4615 32.3937 57.0074C32.3937 57.5534 31.924 58 31.35 58H13.0433C12.7302 58 12.4379 57.871 12.2396 57.6427C12.0413 57.4144 11.9578 57.1166 12.0204 56.8288C13.9304 47.1613 21.3095 42.8139 21.6226 42.6253C21.7791 42.536 21.9566 42.4864 22.1444 42.4864L51.9632 42C52.1928 42 52.412 42.0596 52.5999 42.1886C61.367 48.3127 62.9222 56.4913 62.9848 56.8387C63.037 57.1266 62.9535 57.4243 62.7552 57.6427C62.5569 57.871 62.2646 58 61.962 58Z" fill="#30323A"/>
<path d="M25.9314 42.7934L39.585 56.0763H59.9727C59.9727 56.0763 57.5117 47.5814 48.8521 41.6608L25.9314 42.7934Z" fill="#C9C9C9"/>
<path d="M61.5258 24.7641C61.5258 37.8823 50.7245 48.5086 37.3901 48.5086C24.066 48.5086 13.2646 37.872 13.2646 24.7641C13.2646 11.646 24.066 1.01965 37.3901 1.01965C50.7142 1.01965 61.5258 11.6563 61.5258 24.7641Z" fill="white"/>
<path d="M37.3934 49.5483C23.5236 49.5483 12.2383 38.438 12.2383 24.7741C12.2383 11.1103 23.5236 0 37.3934 0C51.2632 0 62.5588 11.1103 62.5588 24.7741C62.5588 38.4277 51.2735 49.5483 37.3934 49.5483ZM37.3934 2.04907C24.6562 2.04907 14.2976 12.2429 14.2976 24.7638C14.2976 37.2951 24.6562 47.4786 37.3934 47.4786C50.1306 47.4786 60.4995 37.2848 60.4995 24.7638C60.4995 12.2429 50.1306 2.04907 37.3934 2.04907Z" fill="#30323A"/>
<path d="M29.3207 24.3624C29.3207 25.6289 28.291 26.6585 27.0245 26.6585C25.758 26.6585 24.7283 25.6289 24.7283 24.3624C24.7283 23.0958 25.758 22.0662 27.0245 22.0662C28.291 22.0662 29.3207 23.0958 29.3207 24.3624Z" fill="#30323A"/>
<path d="M50.2342 24.3215C50.2342 25.588 49.2045 26.6176 47.938 26.6176C46.6715 26.6176 45.6418 25.588 45.6418 24.3215C45.6418 23.0549 46.6715 22.0253 47.938 22.0253C49.2045 22.0253 50.2342 23.0549 50.2342 24.3215Z" fill="#30323A"/>
<path d="M60.5184 2.99555C60.5184 2.99555 54.711 1.65697 51.6219 2.00706C51.6219 2.00706 47.8121 2.8308 49.0683 5.94044C49.0683 5.94044 54.9478 19.9441 59.2622 22.7551C59.2622 22.7551 63.2985 26.3899 64.8224 21.2518C64.8224 21.2518 65.6565 12.654 63.5148 6.65092C63.525 6.65092 63.0926 3.96345 60.5184 2.99555Z" fill="#686868"/>
<path d="M62.1138 25.0322C60.456 25.0322 58.9938 23.879 58.6437 23.5803C54.1337 20.5428 48.3675 6.9201 48.1204 6.34348C47.5438 4.92252 47.8218 3.87224 48.1513 3.23384C49.0368 1.55546 51.158 1.05091 51.3948 0.999428C51.8787 0.937647 52.3009 0.917053 52.7746 0.917053C56.0386 0.917053 60.5487 1.94674 60.734 1.99822C60.7752 2.00852 60.8267 2.01881 60.8679 2.03941C63.6789 3.09998 64.3894 5.79775 64.5026 6.38466C66.665 12.5319 65.8721 21.0061 65.8412 21.3562C65.8309 21.418 65.8206 21.4901 65.8 21.5519C64.966 24.435 63.3288 25.0322 62.1138 25.0322ZM51.7964 3.0279C51.3742 3.13087 50.3342 3.52215 49.9738 4.20174C49.7885 4.56213 49.8091 5.00489 50.0356 5.56092C51.6316 9.36044 56.5226 19.7396 59.8382 21.902C59.8794 21.9329 59.9205 21.9637 59.9617 21.9946C60.2706 22.2624 61.2591 22.9728 62.1138 22.9728C62.3918 22.9728 63.2155 22.9625 63.8127 21.0576C63.8951 20.1 64.4717 12.3774 62.5565 6.99218C62.5359 6.93039 62.5153 6.86861 62.5051 6.80683C62.4948 6.72446 62.1241 4.73717 60.2192 3.9855C59.5705 3.84135 54.5662 2.73959 51.7964 3.0279Z" fill="#30323A"/>
<path d="M14.264 2.99635C14.264 2.99635 20.0715 1.65776 23.1605 2.00785C23.1605 2.00785 26.9703 2.8316 25.7038 5.94124C25.7038 5.94124 19.8243 19.9449 15.51 22.7559C15.51 22.7559 11.4736 26.3907 9.94968 21.2526C9.94968 21.2526 9.11564 12.6548 11.2574 6.65172C11.2574 6.65172 11.6898 3.96425 14.264 2.99635Z" fill="#686868"/>
<path d="M12.6692 25.0316C11.4541 25.0316 9.81695 24.4241 8.96231 21.541C8.94172 21.4792 8.93142 21.4174 8.92112 21.3454C8.89023 20.985 8.09738 12.521 10.2597 6.3738C10.3833 5.78688 11.0835 3.08911 13.8945 2.02854C13.9357 2.00795 13.9769 1.99765 14.0283 1.98735C14.2137 1.94617 18.7237 0.906189 21.9878 0.906189C22.4614 0.906189 22.8836 0.926783 23.2646 0.96797C23.6044 1.04005 25.7255 1.53429 26.6111 3.21268C26.9509 3.84078 27.2186 4.90135 26.6522 6.31202C26.4051 6.90923 20.6389 20.5216 16.1289 23.5592C15.7891 23.8784 14.327 25.0316 12.6692 25.0316ZM10.9702 21.0571C11.5674 22.9723 12.4014 22.9723 12.6692 22.9723C13.5341 22.9723 14.5329 22.2412 14.8212 21.9941C14.8624 21.9632 14.9036 21.922 14.9448 21.9014C18.2603 19.7391 23.1513 9.35988 24.7576 5.55005C25.0871 4.7469 24.8709 4.33503 24.7988 4.20117C24.4178 3.48039 23.3058 3.09941 22.9351 3.01704C22.7189 2.99644 22.3585 2.98615 21.9878 2.98615C19.1665 2.98615 15.1301 3.86138 14.5638 3.99523C12.628 4.7675 12.2779 6.79597 12.2779 6.81656C12.2676 6.87834 12.247 6.94012 12.2264 7.00191C10.3112 12.3768 10.8878 20.0995 10.9702 21.0571Z" fill="#30323A"/>
<path d="M41.0993 31.8802C41.0993 32.6937 39.5445 33.3424 37.619 33.3424C35.6935 33.3424 34.1387 32.6834 34.1387 31.8802C34.1387 31.0668 35.6935 30.4181 37.619 30.4181C39.5445 30.4181 41.0993 31.0771 41.0993 31.8802Z" fill="#30323A"/>
<path d="M41.7803 38.9634C38.8972 38.9634 36.5598 36.8114 36.5598 34.1548C36.5598 33.5885 37.0232 33.1251 37.5895 33.1251C38.1558 33.1251 38.6192 33.5885 38.6192 34.1548C38.6192 35.6684 40.0401 36.9041 41.7803 36.9041C43.5205 36.9041 44.9414 35.6684 44.9414 34.1548C44.9414 33.5885 45.4048 33.1251 45.9711 33.1251C46.5374 33.1251 47.0008 33.5885 47.0008 34.1548C47.0008 36.8011 44.6531 38.9634 41.7803 38.9634Z" fill="#30323A"/>
<path d="M33.3679 38.9634C30.4951 38.9634 28.1475 36.8114 28.1475 34.1548C28.1475 33.5885 28.6108 33.1251 29.1771 33.1251C29.7435 33.1251 30.2068 33.5885 30.2068 34.1548C30.2068 35.6684 31.6278 36.9041 33.3679 36.9041C35.1081 36.9041 36.5291 35.6684 36.5291 34.1548C36.5291 33.5885 36.9924 33.1251 37.5588 33.1251C38.1251 33.1251 38.5884 33.5885 38.5884 34.1548C38.5884 36.8011 36.2511 38.9634 33.3679 38.9634Z" fill="#30323A"/>
<path d="M37.5768 35.3488C37.0105 35.3488 36.5471 34.8854 36.5471 34.3191V32.1259C36.5471 31.5595 37.0105 31.0962 37.5768 31.0962C38.1431 31.0962 38.6065 31.5595 38.6065 32.1259V34.3191C38.6065 34.8957 38.1431 35.3488 37.5768 35.3488Z" fill="#373737"/>
<path d="M29.4695 58.0594H1.02968C0.463357 58.0594 0 57.596 0 57.0297C0 56.4634 0.463357 56 1.02968 56H29.4695C30.0358 56 30.4992 56.4634 30.4992 57.0297C30.4992 57.596 30.0358 58.0594 29.4695 58.0594Z" fill="#FFB100"/>
<path d="M67.596 58H28.418C27.6381 58 27 57.55 27 57C27 56.45 27.6381 56 28.418 56H67.5818C68.3617 56 68.9998 56.45 68.9998 57C69.014 57.55 68.3759 58 67.596 58Z" fill="#FFB100"/>
<path d="M25.1678 53.2442C25.1678 56.4054 22.1818 58.9693 18.5058 58.9693C14.8298 58.9693 11.8438 56.4054 11.8438 53.2442C11.8438 50.0831 14.8298 47.5192 18.5058 47.5192C22.1818 47.5089 25.1678 50.0728 25.1678 53.2442Z" fill="white"/>
<path d="M18.5084 60C14.2661 60 10.8167 56.9728 10.8167 53.2453C10.8167 49.5179 14.2661 46.4906 18.5084 46.4906C22.7507 46.4906 26.2001 49.5179 26.2001 53.2453C26.2001 56.9728 22.7507 60 18.5084 60ZM18.5084 48.5397C15.3987 48.5397 12.876 50.6505 12.876 53.235C12.876 55.8298 15.3987 57.9304 18.5084 57.9304C21.618 57.9304 24.1407 55.8195 24.1407 53.235C24.1407 50.6505 21.618 48.5397 18.5084 48.5397Z" fill="#30323A"/>
<path d="M63.5748 53.2442C63.5748 56.4054 60.5887 58.9693 56.9128 58.9693C53.2368 58.9693 50.2507 56.4054 50.2507 53.2442C50.2507 50.0831 53.2368 47.5192 56.9128 47.5192C60.5887 47.5089 63.5748 50.0728 63.5748 53.2442Z" fill="white"/>
<path d="M56.9046 60C52.6623 60 49.2129 56.9728 49.2129 53.2453C49.2129 49.5179 52.6623 46.4906 56.9046 46.4906C61.1469 46.4906 64.5963 49.5179 64.5963 53.2453C64.6066 56.9728 61.1469 60 56.9046 60ZM56.9046 48.5397C53.795 48.5397 51.2723 50.6505 51.2723 53.235C51.2723 55.8298 53.795 57.9304 56.9046 57.9304C60.0143 57.9304 62.537 55.8195 62.537 53.235C62.5473 50.6505 60.0143 48.5397 56.9046 48.5397Z" fill="#30323A"/>
<path d="M67.697 36.3267C67.4087 36.3267 67.1307 36.2031 66.9247 35.9766C66.554 35.5441 66.5952 34.8954 67.0174 34.5248L72.6498 29.5926C73.0822 29.2219 73.7309 29.2631 74.1016 29.6853C74.4723 30.1177 74.4311 30.7664 74.0089 31.1371L68.3766 36.0693C68.1809 36.2443 67.9338 36.3267 67.697 36.3267Z" fill="#30323A"/>
<path d="M72.175 44.5444C72.1133 44.5444 72.0412 44.5341 71.9794 44.5238L69.4464 44.0295C68.8904 43.9163 68.5197 43.3808 68.6329 42.8248C68.7462 42.2688 69.2713 41.8981 69.8377 42.0114L72.3707 42.5056C72.9267 42.6189 73.2974 43.1543 73.1841 43.7103C73.0812 44.2046 72.659 44.5444 72.175 44.5444Z" fill="#30323A"/>
<path d="M7.66539 36.3266C7.42856 36.3266 7.18144 36.2442 6.9858 36.0691L1.35344 31.137C0.920975 30.7663 0.879788 30.1073 1.26077 29.6851C1.63146 29.2526 2.29045 29.2115 2.71262 29.5924L8.34498 34.5246C8.77745 34.8953 8.81863 35.5543 8.43765 35.9765C8.23172 36.2133 7.9537 36.3266 7.66539 36.3266Z" fill="#30323A"/>
<path d="M3.18768 44.5444C2.70373 44.5444 2.27126 44.2046 2.17859 43.7103C2.06533 43.1543 2.43601 42.6086 2.99204 42.5056L5.52506 42.0114C6.08109 41.8981 6.62682 42.2688 6.72978 42.8248C6.84305 43.3808 6.47236 43.9266 5.91634 44.0295L3.38332 44.5238C3.32154 44.5444 3.24946 44.5444 3.18768 44.5444Z" fill="#30323A"/>
</svg>
